<?xml version="1.0" encoding="UTF-8"?>
<svg width="512px" height="512px" viewBox="0 0 512 512" version="1.1" xmlns="http://www.w3.org/2000/svg" xmlns:xlink="http://www.w3.org/1999/xlink">
    <!-- Generator: Sketch 51 (57462) - http://www.bohemiancoding.com/sketch -->
    <title>youmee</title>
    <desc>Created with Sketch.</desc>
    <defs>
        <path d="M203.136,322.464 L203.12,178.608 L341.456,250.784 L203.136,322.464 Z M486.528,102.864 C467.056,82.464 445.232,82.368 435.232,81.184 C363.584,76 256.112,76 256.112,76 C255.888,76 148.416,76 76.768,81.184 C66.752,82.368 44.944,82.464 25.456,102.864 C10.112,118.4 5.12,153.68 5.12,153.68 C5.12,153.68 0,195.12 0,236.544 L0,275.392 C0,316.832 5.12,358.256 5.12,358.256 C5.12,358.256 10.112,393.536 25.456,409.072 C44.944,429.472 70.528,428.832 81.92,430.96 C122.88,434.896 256,436.112 256,436.112 C256,436.112 363.584,435.952 435.232,430.768 C445.232,429.568 467.056,429.472 486.528,409.072 C501.872,393.536 506.88,358.256 506.88,358.256 C506.88,358.256 512,316.832 512,275.392 L512,236.544 C512,195.12 506.88,153.68 506.88,153.68 C506.88,153.68 501.872,118.4 486.528,102.864 Z" id="path-1"></path>
        <filter x="-0.8%" y="-0.6%" width="101.6%" height="102.2%" filterUnits="objectBoundingBox" id="filter-2">
            <feOffset dx="0" dy="2" in="SourceAlpha" result="shadowOffsetOuter1"></feOffset>
            <feGaussianBlur stdDeviation="1" in="shadowOffsetOuter1" result="shadowBlurOuter1"></feGaussianBlur>
            <feColorMatrix values="0 0 0 0 0   0 0 0 0 0   0 0 0 0 0  0 0 0 0.5 0" type="matrix" in="shadowBlurOuter1"></feColorMatrix>
        </filter>
    </defs>
    <g id="youmee" stroke="none" stroke-width="1" fill="none" fill-rule="evenodd">
        <g id="Fill-25">
            <use fill="black" fill-opacity="1" filter="url(#filter-2)" xlink:href="#path-1"></use>
            <use fill="#00A8FF" fill-rule="evenodd" xlink:href="#path-1"></use>
        </g>
    </g>
</svg>